<svg id="Layer_1" data-name="Layer 1" xmlns="http://www.w3.org/2000/svg" viewBox="0 0 15.66 19.55"><defs><style>.cls-1{fill:#1e4c75;}</style></defs><path id="pass" class="cls-1" d="M145.81,280.24h-1.19v-1.48a5,5,0,1,0-9.9-.2v1.68h-1.19a1.68,1.68,0,0,0-1.68,1.68v9.64a1.7,1.7,0,0,0,1.68,1.7h12.28a1.7,1.7,0,0,0,1.7-1.7v-9.64A1.7,1.7,0,0,0,145.81,280.24ZM137,278.76a2.71,2.71,0,1,1,5.42,0v1.48H137Zm3.63,10v2.46a.19.19,0,0,1-.19.18h-1.19a.18.18,0,0,1-.17-.18V288.8a2.15,2.15,0,1,1,1.55,0Z" transform="translate(-131.85 -273.71)"/></svg>