<?xml version="1.0" encoding="utf-8"?>
<!-- Generator: Adobe Illustrator 25.4.1, SVG Export Plug-In . SVG Version: 6.00 Build 0)  -->
<svg version="1.1" id="Layer_1" xmlns="http://www.w3.org/2000/svg" xmlns:xlink="http://www.w3.org/1999/xlink" x="0px" y="0px"
	 viewBox="0 0 595.28 841.89" style="enable-background:new 0 0 595.28 841.89;" xml:space="preserve">
<style type="text/css">
	.st0{fill:#00B1E3;}
</style>
<path class="st0" d="M434.39,333.81c-8.73,3.95-18.39,6.34-27.81,7.93c4.47-0.75,11.04-8.85,13.67-12.12
	c4.02-4.99,7.35-10.68,9.23-16.83c0.24-0.48,0.42-1.08-0.06-1.44c-0.61-0.24-0.99-0.12-1.47,0.12
	c-10.52,5.64-21.39,9.72-32.97,12.62c-0.96,0.24-1.67,0-2.27-0.6c-0.96-1.08-1.86-2.11-2.88-2.95c-4.87-4.14-10.09-7.39-15.97-9.79
	c-7.73-3.15-16.17-4.48-24.5-3.94c-8.1,0.53-16.05,2.81-23.24,6.56c-7.2,3.76-13.63,9-18.75,15.32
	c-5.29,6.53-9.19,14.25-11.19,22.43c-1.93,7.89-1.77,15.7-0.59,23.67c0.18,1.33,0.06,1.5-1.14,1.33
	c-45.28-6.74-82.82-22.94-113.29-57.67c-1.32-1.51-2.04-1.51-3.12,0.11c-13.34,19.99-6.87,52.1,9.79,67.88
	c2.22,2.11,4.5,4.21,6.96,6.13c-0.9,0.18-11.98-1.02-21.86-6.13c-1.32-0.84-1.99-0.36-2.11,1.15c-0.12,2.16,0.06,4.15,0.36,6.49
	c2.56,20.26,16.59,39,35.8,46.31c2.28,0.96,4.8,1.8,7.26,2.22c-4.38,0.96-8.89,1.65-21.44,0.66c-1.56-0.3-2.16,0.48-1.56,1.98
	c9.43,25.71,29.8,33.37,45.05,37.72c2.04,0.36,4.08,0.36,6.13,0.84c-0.13,0.19-0.25,0.19-0.37,0.36
	c-5.06,7.71-22.59,13.45-30.76,16.3c-14.85,5.19-31.03,7.53-46.72,5.98c-2.51-0.37-3.04-0.34-3.72,0c-0.69,0.42-0.09,1.03,0.72,1.68
	c3.19,2.11,6.43,3.97,9.73,5.77c9.97,5.28,20.36,9.49,31.23,12.49c56.13,15.5,119.36,4.11,161.51-37.77
	c33.1-32.88,44.7-78.23,44.7-123.64c0-1.78,2.1-2.76,3.34-3.7c8.61-6.47,15.56-14.21,21.98-22.86c1.44-1.94,1.46-3.67,1.46-4.38
	c0-0.12,0-0.24,0-0.24C435.52,333.08,435.5,333.3,434.39,333.81z"/>
</svg>
